<svg width="20" height="20" fill="none" xmlns="http://www.w3.org/2000/svg"><g clip-path="url(#clip0_563:7785)"><path fill-rule="evenodd" clip-rule="evenodd" d="M6.6 6a.1.1 0 01-.1-.1V4.5a3.5 3.5 0 117 0v1.4a.1.1 0 01-.1.1H6.6zM5.4 7a.1.1 0 01.1.1v2.8a.1.1 0 00.1.1h.8a.1.1 0 00.1-.1V7.1a.1.1 0 01.1-.1h6.8a.1.1 0 01.1.1v2.8a.1.1 0 00.1.1h.8a.1.1 0 00.1-.1V7.1a.1.1 0 01.1-.1h3.3a.1.1 0 01.1.1v11.8a.1.1 0 01-.1.1H2.1a.1.1 0 01-.1-.1V7.1a.1.1 0 01.1-.1h3.3zm0-1a.1.1 0 00.1-.1V4.5a4.5 4.5 0 019 0v1.4a.1.1 0 00.1.1h4.3a.1.1 0 01.1.1v13.8a.1.1 0 01-.1.1H1.1a.1.1 0 01-.1-.1V6.1a.1.1 0 01.1-.1h4.3z" fill="#27251F"/></g><defs><clipPath id="clip0_563:7785"><path fill="#fff" d="M0 0h20v20H0z"/></clipPath></defs></svg>