<svg width="20" height="20" fill="none" xmlns="http://www.w3.org/2000/svg"><path fill-rule="evenodd" clip-rule="evenodd" d="M17.426 10.415l.015-.014c.096-.088.188-.18.277-.277l.014-.015.01-.012A4.893 4.893 0 0019 6.8C19 4.116 16.908 2 14.4 2c-1.451 0-2.755.702-3.604 1.818l-.716.94a.1.1 0 01-.16 0l-.716-.94C8.354 2.702 7.051 2 5.6 2 3.092 2 1 4.116 1 6.8c0 1.282.48 2.44 1.257 3.297l.013.014.012.013c.089.096.181.19.277.278l.016.014 7.354 7.354a.1.1 0 00.142 0l7.355-7.354zm-7.355 8.77a.1.1 0 01-.142 0l-8.047-8.047a5.763 5.763 0 01-.336-.337l-.03-.03v-.002l-.01-.011a5.802 5.802 0 01-.595-.786A5.922 5.922 0 010 6.8C0 3.597 2.507 1 5.6 1a5.47 5.47 0 013.717 1.462c.216.199.418.415.602.646.041.052.12.052.162 0 .184-.231.386-.447.602-.646A5.471 5.471 0 0114.4 1C17.493 1 20 3.597 20 6.8c0 1.17-.335 2.26-.91 3.172-.177.28-.377.542-.596.786l-.01.01v.003l-.03.03a5.72 5.72 0 01-.336.336l-8.047 8.048z" fill="#27251F"/></svg>